<mxfile host="65bd71144e">
    <diagram id="UTuRQX_oI-xC16K8ussf" name="Page-1">
        <mxGraphModel dx="1165" dy="638" grid="1" gridSize="10" guides="1" tooltips="1" connect="1" arrows="1" fold="1" page="1" pageScale="1" pageWidth="850" pageHeight="1100" math="0" shadow="0">
            <root>
                <mxCell id="0"/>
                <mxCell id="1" parent="0"/>
                <mxCell id="2" value="" style="rounded=0;whiteSpace=wrap;html=1;" vertex="1" parent="1">
                    <mxGeometry x="130" y="410" width="630" height="420" as="geometry"/>
                </mxCell>
                <mxCell id="3" value="" style="strokeWidth=1;shadow=0;dashed=0;align=center;html=1;shape=mxgraph.mockup.containers.browserWindow;rSize=0;strokeColor=#666666;strokeColor2=#008cff;strokeColor3=#c4c4c4;mainText=,;recursiveResize=0;" vertex="1" parent="1">
                    <mxGeometry x="150" y="430" width="590" height="380" as="geometry"/>
                </mxCell>
                <mxCell id="4" value="Page 2" style="strokeWidth=1;shadow=0;dashed=0;align=center;html=1;shape=mxgraph.mockup.containers.anchor;fontSize=17;fontColor=#666666;align=left;" vertex="1" parent="3">
                    <mxGeometry x="60" y="12" width="110" height="26" as="geometry"/>
                </mxCell>
                <mxCell id="5" value="https://www.draw.io" style="strokeWidth=1;shadow=0;dashed=0;align=center;html=1;shape=mxgraph.mockup.containers.anchor;rSize=0;fontSize=17;fontColor=#666666;align=left;" vertex="1" parent="3">
                    <mxGeometry x="130" y="60" width="250" height="26" as="geometry"/>
                </mxCell>
                <mxCell id="6" value="Tester" style="text;html=1;strokeColor=none;fillColor=none;align=center;verticalAlign=middle;whiteSpace=wrap;rounded=0;shadow=1;glass=0;labelBorderColor=default;sketch=1;" vertex="1" parent="3">
                    <mxGeometry x="10" y="175" width="60" height="30" as="geometry"/>
                </mxCell>
                <mxCell id="7" value="Kommentar" style="text;html=1;strokeColor=none;fillColor=none;align=center;verticalAlign=middle;whiteSpace=wrap;rounded=0;shadow=1;glass=0;labelBorderColor=default;sketch=1;" vertex="1" parent="3">
                    <mxGeometry x="310" y="175" width="70" height="30" as="geometry"/>
                </mxCell>
                <mxCell id="8" value="Status" style="text;html=1;strokeColor=none;fillColor=none;align=center;verticalAlign=middle;whiteSpace=wrap;rounded=0;shadow=1;glass=0;labelBorderColor=default;sketch=1;" vertex="1" parent="3">
                    <mxGeometry x="180" y="175" width="60" height="30" as="geometry"/>
                </mxCell>
                <mxCell id="9" value="Aktion" style="text;html=1;strokeColor=none;fillColor=none;align=center;verticalAlign=middle;whiteSpace=wrap;rounded=0;shadow=1;glass=0;labelBorderColor=default;sketch=1;" vertex="1" parent="3">
                    <mxGeometry x="460" y="175" width="60" height="30" as="geometry"/>
                </mxCell>
                <mxCell id="11" value="Beschreibung" style="text;html=1;strokeColor=none;fillColor=none;align=center;verticalAlign=middle;whiteSpace=wrap;rounded=0;shadow=1;glass=0;labelBorderColor=default;sketch=1;" vertex="1" parent="3">
                    <mxGeometry x="85" y="175" width="55" height="30" as="geometry"/>
                </mxCell>
                <mxCell id="12" value="Tabelle&amp;nbsp; für alle Schritte eines Tests" style="text;html=1;strokeColor=none;fillColor=none;align=center;verticalAlign=middle;whiteSpace=wrap;rounded=0;shadow=1;glass=0;labelBorderColor=default;sketch=1;" vertex="1" parent="3">
                    <mxGeometry x="180" y="140" width="220" height="30" as="geometry"/>
                </mxCell>
                <mxCell id="13" value="" style="endArrow=none;html=1;entryX=1;entryY=0.5;entryDx=0;entryDy=0;" edge="1" parent="3" target="6">
                    <mxGeometry width="50" height="50" relative="1" as="geometry">
                        <mxPoint x="70" y="380" as="sourcePoint"/>
                        <mxPoint x="110" y="260" as="targetPoint"/>
                        <Array as="points">
                            <mxPoint x="70" y="240"/>
                        </Array>
                    </mxGeometry>
                </mxCell>
                <mxCell id="14" value="" style="endArrow=none;html=1;entryX=1;entryY=0.5;entryDx=0;entryDy=0;" edge="1" parent="3">
                    <mxGeometry width="50" height="50" relative="1" as="geometry">
                        <mxPoint x="421" y="380" as="sourcePoint"/>
                        <mxPoint x="421.25" y="190" as="targetPoint"/>
                    </mxGeometry>
                </mxCell>
                <mxCell id="16" value="" style="endArrow=none;html=1;entryX=1;entryY=0.5;entryDx=0;entryDy=0;exitX=0.125;exitY=1.008;exitDx=0;exitDy=0;exitPerimeter=0;" edge="1" parent="3">
                    <mxGeometry width="50" height="50" relative="1" as="geometry">
                        <mxPoint x="294.38" y="380" as="sourcePoint"/>
                        <mxPoint x="295.63" y="186.96000000000004" as="targetPoint"/>
                    </mxGeometry>
                </mxCell>
                <mxCell id="17" value="" style="endArrow=none;html=1;entryX=1;entryY=0.5;entryDx=0;entryDy=0;exitX=0.125;exitY=1.008;exitDx=0;exitDy=0;exitPerimeter=0;" edge="1" parent="3">
                    <mxGeometry width="50" height="50" relative="1" as="geometry">
                        <mxPoint x="150" y="380" as="sourcePoint"/>
                        <mxPoint x="151.25" y="186.96000000000004" as="targetPoint"/>
                    </mxGeometry>
                </mxCell>
                <mxCell id="20" value="" style="endArrow=none;html=1;entryX=0.998;entryY=0.684;entryDx=0;entryDy=0;entryPerimeter=0;exitX=-0.002;exitY=0.695;exitDx=0;exitDy=0;exitPerimeter=0;" edge="1" parent="3">
                    <mxGeometry width="50" height="50" relative="1" as="geometry">
                        <mxPoint x="-5.684341886080802e-14" y="304.17999999999995" as="sourcePoint"/>
                        <mxPoint x="590.0000000000001" y="300.0000000000001" as="targetPoint"/>
                    </mxGeometry>
                </mxCell>
                <mxCell id="21" value="" style="endArrow=none;html=1;entryX=0.998;entryY=0.684;entryDx=0;entryDy=0;entryPerimeter=0;exitX=-0.002;exitY=0.695;exitDx=0;exitDy=0;exitPerimeter=0;" edge="1" parent="3">
                    <mxGeometry width="50" height="50" relative="1" as="geometry">
                        <mxPoint x="-5.684341886080802e-14" y="344.17999999999995" as="sourcePoint"/>
                        <mxPoint x="590.0000000000001" y="340.0000000000001" as="targetPoint"/>
                    </mxGeometry>
                </mxCell>
                <mxCell id="23" value="&lt;font style=&quot;font-size: 11px;&quot;&gt;Button&lt;br&gt;Erfolgreich&lt;/font&gt;" style="strokeWidth=1;shadow=0;dashed=0;align=center;html=1;shape=mxgraph.mockup.buttons.button;strokeColor=#666666;fontColor=#ffffff;mainText=;buttonStyle=round;fontSize=17;fontStyle=1;fillColor=#008cff;whiteSpace=wrap;" vertex="1" parent="3">
                    <mxGeometry x="157.5" y="212.5" width="65" height="50" as="geometry"/>
                </mxCell>
                <mxCell id="25" value="&lt;font style=&quot;font-size: 11px;&quot;&gt;Button&lt;br&gt;Fehlerhaft&lt;/font&gt;" style="strokeWidth=1;shadow=0;dashed=0;align=center;html=1;shape=mxgraph.mockup.buttons.button;strokeColor=#666666;fontColor=#ffffff;mainText=;buttonStyle=round;fontSize=17;fontStyle=1;fillColor=#008cff;whiteSpace=wrap;" vertex="1" parent="3">
                    <mxGeometry x="222.5" y="212.5" width="65" height="50" as="geometry"/>
                </mxCell>
                <mxCell id="26" value="&lt;span style=&quot;font-size: 11px;&quot;&gt;Button&lt;br&gt;&lt;/span&gt;&lt;span style=&quot;font-size: 11px;&quot;&gt;Zurücksentzen&lt;/span&gt;" style="strokeWidth=1;shadow=0;dashed=0;align=center;html=1;shape=mxgraph.mockup.buttons.button;strokeColor=#666666;fontColor=#ffffff;mainText=;buttonStyle=round;fontSize=17;fontStyle=1;fillColor=#008cff;whiteSpace=wrap;" vertex="1" parent="3">
                    <mxGeometry x="460" y="212.5" width="80" height="35" as="geometry"/>
                </mxCell>
                <mxCell id="27" value="Eingabe Feld" style="strokeWidth=1;shadow=0;dashed=0;align=center;html=1;shape=mxgraph.mockup.forms.pwField;strokeColor=#FFFFFF;mainText=;align=left;fontColor=#FFFFFF;fontSize=17;spacingLeft=3;fillColor=#0000FF;gradientColor=none;" vertex="1" parent="3">
                    <mxGeometry x="300" y="222.5" width="110" height="30" as="geometry"/>
                </mxCell>
                <mxCell id="22" value="" style="endArrow=none;html=1;entryX=0.998;entryY=0.684;entryDx=0;entryDy=0;entryPerimeter=0;exitX=-0.002;exitY=0.695;exitDx=0;exitDy=0;exitPerimeter=0;" edge="1" parent="1" source="3" target="3">
                    <mxGeometry width="50" height="50" relative="1" as="geometry">
                        <mxPoint x="320" y="750" as="sourcePoint"/>
                        <mxPoint x="370" y="700" as="targetPoint"/>
                    </mxGeometry>
                </mxCell>
            </root>
        </mxGraphModel>
    </diagram>
</mxfile>